<mxfile host="app.diagrams.net" modified="2023-04-24T04:19:03.238Z" agent="Mozilla/5.0 (Macintosh; Intel Mac OS X 10_15_7) AppleWebKit/537.36 (KHTML, like Gecko) Chrome/112.0.0.0 Safari/537.36" etag="7_SNQREMkmXwjI_3ubai" version="21.2.1" type="device" pages="3">
  <diagram id="cW9RzdJorGex2VD1hUgy" name="add">
    <mxGraphModel dx="1177" dy="596" grid="1" gridSize="10" guides="1" tooltips="1" connect="1" arrows="1" fold="1" page="1" pageScale="1" pageWidth="827" pageHeight="1169" math="0" shadow="0">
      <root>
        <mxCell id="0" />
        <mxCell id="1" parent="0" />
        <mxCell id="Px6L1Nui6rfwBEK879pw-48" value="" style="curved=1;endArrow=classic;html=1;rounded=0;exitX=0.5;exitY=1;exitDx=0;exitDy=0;entryX=1;entryY=0.5;entryDx=0;entryDy=0;" parent="1" source="Px6L1Nui6rfwBEK879pw-49" target="ryEBa4EGHBNdA7mkirib-5" edge="1">
          <mxGeometry width="50" height="50" relative="1" as="geometry">
            <mxPoint x="310" y="265" as="sourcePoint" />
            <mxPoint x="230" y="300" as="targetPoint" />
            <Array as="points">
              <mxPoint x="280" y="290" />
              <mxPoint x="270" y="300" />
            </Array>
          </mxGeometry>
        </mxCell>
        <mxCell id="Px6L1Nui6rfwBEK879pw-49" value="2" style="rounded=0;whiteSpace=wrap;html=1;fillColor=#E6E6E6;" parent="1" vertex="1">
          <mxGeometry x="270" y="230" width="20" height="40" as="geometry" />
        </mxCell>
        <mxCell id="ryEBa4EGHBNdA7mkirib-1" value="" style="endArrow=classic;html=1;rounded=0;strokeColor=#FF3333;" parent="1" edge="1">
          <mxGeometry width="50" height="50" relative="1" as="geometry">
            <mxPoint x="79.8" y="350" as="sourcePoint" />
            <mxPoint x="79.8" y="330" as="targetPoint" />
          </mxGeometry>
        </mxCell>
        <mxCell id="ryEBa4EGHBNdA7mkirib-2" value="HEAD" style="text;html=1;strokeColor=none;fillColor=none;align=center;verticalAlign=middle;whiteSpace=wrap;rounded=0;" parent="1" vertex="1">
          <mxGeometry x="40" y="340" width="40" height="20" as="geometry" />
        </mxCell>
        <mxCell id="Px6L1Nui6rfwBEK879pw-26" value="" style="endArrow=none;html=1;rounded=0;" parent="1" edge="1">
          <mxGeometry width="50" height="50" relative="1" as="geometry">
            <mxPoint x="60" y="280" as="sourcePoint" />
            <mxPoint x="140" y="280" as="targetPoint" />
          </mxGeometry>
        </mxCell>
        <mxCell id="Px6L1Nui6rfwBEK879pw-27" value="" style="endArrow=none;html=1;rounded=0;" parent="1" edge="1">
          <mxGeometry width="50" height="50" relative="1" as="geometry">
            <mxPoint x="60" y="320" as="sourcePoint" />
            <mxPoint x="140" y="320" as="targetPoint" />
          </mxGeometry>
        </mxCell>
        <mxCell id="Px6L1Nui6rfwBEK879pw-29" value="" style="html=1;shadow=0;dashed=0;align=center;verticalAlign=middle;shape=mxgraph.arrows2.arrow;dy=0.34;dx=20.24;notch=0;fillColor=#E6E6E6;" parent="1" vertex="1">
          <mxGeometry x="160" y="285" width="30" height="30" as="geometry" />
        </mxCell>
        <mxCell id="Px6L1Nui6rfwBEK879pw-45" value="1" style="rounded=0;whiteSpace=wrap;html=1;fillColor=#E6E6E6;" parent="1" vertex="1">
          <mxGeometry x="70" y="280" width="20" height="40" as="geometry" />
        </mxCell>
        <mxCell id="ryEBa4EGHBNdA7mkirib-3" value="" style="rounded=0;whiteSpace=wrap;html=1;fillColor=none;dashed=1;gradientColor=default;" parent="1" vertex="1">
          <mxGeometry x="90" y="280" width="20" height="40" as="geometry" />
        </mxCell>
        <mxCell id="ryEBa4EGHBNdA7mkirib-4" value="" style="rounded=0;whiteSpace=wrap;html=1;fillColor=none;dashed=1;gradientColor=default;" parent="1" vertex="1">
          <mxGeometry x="110" y="280" width="20" height="40" as="geometry" />
        </mxCell>
        <mxCell id="Px6L1Nui6rfwBEK879pw-38" value="" style="endArrow=none;html=1;rounded=0;" parent="1" edge="1">
          <mxGeometry width="50" height="50" relative="1" as="geometry">
            <mxPoint x="200" y="280" as="sourcePoint" />
            <mxPoint x="280" y="280" as="targetPoint" />
          </mxGeometry>
        </mxCell>
        <mxCell id="Px6L1Nui6rfwBEK879pw-39" value="" style="endArrow=none;html=1;rounded=0;" parent="1" edge="1">
          <mxGeometry width="50" height="50" relative="1" as="geometry">
            <mxPoint x="200" y="320" as="sourcePoint" />
            <mxPoint x="280" y="320" as="targetPoint" />
          </mxGeometry>
        </mxCell>
        <mxCell id="Px6L1Nui6rfwBEK879pw-40" value="" style="html=1;shadow=0;dashed=0;align=center;verticalAlign=middle;shape=mxgraph.arrows2.arrow;dy=0.34;dx=20.24;notch=0;fillColor=#E6E6E6;" parent="1" vertex="1">
          <mxGeometry x="290" y="285" width="30" height="30" as="geometry" />
        </mxCell>
        <mxCell id="Px6L1Nui6rfwBEK879pw-46" value="1" style="rounded=0;whiteSpace=wrap;html=1;fillColor=#E6E6E6;" parent="1" vertex="1">
          <mxGeometry x="220" y="280" width="20" height="40" as="geometry" />
        </mxCell>
        <mxCell id="Px6L1Nui6rfwBEK879pw-42" value="" style="endArrow=none;html=1;rounded=0;" parent="1" edge="1">
          <mxGeometry width="50" height="50" relative="1" as="geometry">
            <mxPoint x="340" y="280" as="sourcePoint" />
            <mxPoint x="420" y="280" as="targetPoint" />
          </mxGeometry>
        </mxCell>
        <mxCell id="Px6L1Nui6rfwBEK879pw-43" value="" style="endArrow=none;html=1;rounded=0;" parent="1" edge="1">
          <mxGeometry width="50" height="50" relative="1" as="geometry">
            <mxPoint x="340" y="320" as="sourcePoint" />
            <mxPoint x="420" y="320" as="targetPoint" />
          </mxGeometry>
        </mxCell>
        <mxCell id="Px6L1Nui6rfwBEK879pw-50" value="1" style="rounded=0;whiteSpace=wrap;html=1;fillColor=#E6E6E6;" parent="1" vertex="1">
          <mxGeometry x="350" y="280" width="20" height="40" as="geometry" />
        </mxCell>
        <mxCell id="Px6L1Nui6rfwBEK879pw-51" value="2" style="rounded=0;whiteSpace=wrap;html=1;fillColor=#E6E6E6;" parent="1" vertex="1">
          <mxGeometry x="370" y="280" width="20" height="40" as="geometry" />
        </mxCell>
        <mxCell id="ryEBa4EGHBNdA7mkirib-5" value="" style="rounded=0;whiteSpace=wrap;html=1;fillColor=none;dashed=1;gradientColor=default;" parent="1" vertex="1">
          <mxGeometry x="240" y="280" width="20" height="40" as="geometry" />
        </mxCell>
        <mxCell id="ryEBa4EGHBNdA7mkirib-6" value="" style="rounded=0;whiteSpace=wrap;html=1;fillColor=none;dashed=1;gradientColor=default;" parent="1" vertex="1">
          <mxGeometry x="220" y="280" width="20" height="40" as="geometry" />
        </mxCell>
        <mxCell id="ryEBa4EGHBNdA7mkirib-7" value="" style="rounded=0;whiteSpace=wrap;html=1;fillColor=none;dashed=1;gradientColor=default;" parent="1" vertex="1">
          <mxGeometry x="350" y="280" width="20" height="40" as="geometry" />
        </mxCell>
        <mxCell id="ryEBa4EGHBNdA7mkirib-8" value="TAIL" style="text;html=1;strokeColor=none;fillColor=none;align=center;verticalAlign=middle;whiteSpace=wrap;rounded=0;" parent="1" vertex="1">
          <mxGeometry x="100" y="340" width="40" height="20" as="geometry" />
        </mxCell>
        <mxCell id="ryEBa4EGHBNdA7mkirib-9" value="" style="endArrow=classic;html=1;rounded=0;strokeColor=#3333FF;" parent="1" edge="1">
          <mxGeometry width="50" height="50" relative="1" as="geometry">
            <mxPoint x="99.80999999999989" y="350" as="sourcePoint" />
            <mxPoint x="99.80999999999989" y="330" as="targetPoint" />
          </mxGeometry>
        </mxCell>
        <mxCell id="5_4yvXC4rwrI3K2m6qcF-3" value="" style="endArrow=classic;html=1;rounded=0;strokeColor=#FF3333;" edge="1" parent="1">
          <mxGeometry width="50" height="50" relative="1" as="geometry">
            <mxPoint x="229.8" y="350" as="sourcePoint" />
            <mxPoint x="229.8" y="330" as="targetPoint" />
          </mxGeometry>
        </mxCell>
        <mxCell id="5_4yvXC4rwrI3K2m6qcF-4" value="HEAD" style="text;html=1;strokeColor=none;fillColor=none;align=center;verticalAlign=middle;whiteSpace=wrap;rounded=0;" vertex="1" parent="1">
          <mxGeometry x="190" y="340" width="40" height="20" as="geometry" />
        </mxCell>
        <mxCell id="5_4yvXC4rwrI3K2m6qcF-5" value="TAIL" style="text;html=1;strokeColor=none;fillColor=none;align=center;verticalAlign=middle;whiteSpace=wrap;rounded=0;" vertex="1" parent="1">
          <mxGeometry x="250" y="340" width="40" height="20" as="geometry" />
        </mxCell>
        <mxCell id="5_4yvXC4rwrI3K2m6qcF-6" value="" style="endArrow=classic;html=1;rounded=0;strokeColor=#3333FF;" edge="1" parent="1">
          <mxGeometry width="50" height="50" relative="1" as="geometry">
            <mxPoint x="249.8099999999999" y="350" as="sourcePoint" />
            <mxPoint x="249.8099999999999" y="330" as="targetPoint" />
          </mxGeometry>
        </mxCell>
        <mxCell id="5_4yvXC4rwrI3K2m6qcF-7" value="" style="endArrow=none;html=1;rounded=0;" edge="1" parent="1">
          <mxGeometry width="50" height="50" relative="1" as="geometry">
            <mxPoint x="340" y="320" as="sourcePoint" />
            <mxPoint x="420" y="320" as="targetPoint" />
          </mxGeometry>
        </mxCell>
        <mxCell id="5_4yvXC4rwrI3K2m6qcF-8" value="" style="endArrow=classic;html=1;rounded=0;strokeColor=#FF3333;" edge="1" parent="1">
          <mxGeometry width="50" height="50" relative="1" as="geometry">
            <mxPoint x="359.8" y="350" as="sourcePoint" />
            <mxPoint x="359.8" y="330" as="targetPoint" />
          </mxGeometry>
        </mxCell>
        <mxCell id="5_4yvXC4rwrI3K2m6qcF-9" value="HEAD" style="text;html=1;strokeColor=none;fillColor=none;align=center;verticalAlign=middle;whiteSpace=wrap;rounded=0;" vertex="1" parent="1">
          <mxGeometry x="320" y="340" width="40" height="20" as="geometry" />
        </mxCell>
        <mxCell id="5_4yvXC4rwrI3K2m6qcF-10" value="TAIL" style="text;html=1;strokeColor=none;fillColor=none;align=center;verticalAlign=middle;whiteSpace=wrap;rounded=0;" vertex="1" parent="1">
          <mxGeometry x="400.19" y="340" width="40" height="20" as="geometry" />
        </mxCell>
        <mxCell id="5_4yvXC4rwrI3K2m6qcF-11" value="" style="endArrow=classic;html=1;rounded=0;strokeColor=#3333FF;" edge="1" parent="1">
          <mxGeometry width="50" height="50" relative="1" as="geometry">
            <mxPoint x="399.9999999999999" y="350" as="sourcePoint" />
            <mxPoint x="399.9999999999999" y="330" as="targetPoint" />
          </mxGeometry>
        </mxCell>
      </root>
    </mxGraphModel>
  </diagram>
  <diagram id="g562fL7XAMkoE0CE1OTv" name="remove">
    <mxGraphModel dx="824" dy="417" grid="1" gridSize="10" guides="1" tooltips="1" connect="1" arrows="1" fold="1" page="1" pageScale="1" pageWidth="827" pageHeight="1169" math="0" shadow="0">
      <root>
        <mxCell id="0" />
        <mxCell id="1" parent="0" />
        <mxCell id="pRhLELmrs-WNN1f4No2f-16" value="" style="curved=1;endArrow=classic;html=1;rounded=0;entryX=0.5;entryY=1;entryDx=0;entryDy=0;" parent="1" target="pRhLELmrs-WNN1f4No2f-17" edge="1">
          <mxGeometry width="50" height="50" relative="1" as="geometry">
            <mxPoint x="210.1" y="460" as="sourcePoint" />
            <mxPoint x="340.1" y="420" as="targetPoint" />
            <Array as="points">
              <mxPoint x="200.1" y="460" />
              <mxPoint x="190.1" y="450" />
            </Array>
          </mxGeometry>
        </mxCell>
        <mxCell id="pRhLELmrs-WNN1f4No2f-17" value="1" style="rounded=0;whiteSpace=wrap;html=1;fillColor=#E6E6E6;" parent="1" vertex="1">
          <mxGeometry x="180.1" y="380" width="20" height="40" as="geometry" />
        </mxCell>
        <mxCell id="dkqH8y9ofOULMfJ75M3o-3" value="" style="endArrow=classic;html=1;rounded=0;strokeColor=#FF3333;" edge="1" parent="1">
          <mxGeometry width="50" height="50" relative="1" as="geometry">
            <mxPoint x="69.80000000000001" y="510" as="sourcePoint" />
            <mxPoint x="69.80000000000001" y="490" as="targetPoint" />
          </mxGeometry>
        </mxCell>
        <mxCell id="dkqH8y9ofOULMfJ75M3o-4" value="HEAD" style="text;html=1;strokeColor=none;fillColor=none;align=center;verticalAlign=middle;whiteSpace=wrap;rounded=0;" vertex="1" parent="1">
          <mxGeometry x="30" y="500" width="40" height="20" as="geometry" />
        </mxCell>
        <mxCell id="dkqH8y9ofOULMfJ75M3o-5" value="" style="endArrow=none;html=1;rounded=0;" edge="1" parent="1">
          <mxGeometry width="50" height="50" relative="1" as="geometry">
            <mxPoint x="50.00000000000001" y="440" as="sourcePoint" />
            <mxPoint x="130" y="440" as="targetPoint" />
          </mxGeometry>
        </mxCell>
        <mxCell id="dkqH8y9ofOULMfJ75M3o-6" value="" style="endArrow=none;html=1;rounded=0;" edge="1" parent="1">
          <mxGeometry width="50" height="50" relative="1" as="geometry">
            <mxPoint x="50.00000000000001" y="480" as="sourcePoint" />
            <mxPoint x="130" y="480" as="targetPoint" />
          </mxGeometry>
        </mxCell>
        <mxCell id="dkqH8y9ofOULMfJ75M3o-7" value="" style="html=1;shadow=0;dashed=0;align=center;verticalAlign=middle;shape=mxgraph.arrows2.arrow;dy=0.34;dx=20.24;notch=0;fillColor=#E6E6E6;" vertex="1" parent="1">
          <mxGeometry x="150" y="445" width="30" height="30" as="geometry" />
        </mxCell>
        <mxCell id="dkqH8y9ofOULMfJ75M3o-8" value="1" style="rounded=0;whiteSpace=wrap;html=1;fillColor=#E6E6E6;" vertex="1" parent="1">
          <mxGeometry x="60.00000000000001" y="440" width="20" height="40" as="geometry" />
        </mxCell>
        <mxCell id="dkqH8y9ofOULMfJ75M3o-9" value="" style="rounded=0;whiteSpace=wrap;html=1;fillColor=none;dashed=1;gradientColor=default;" vertex="1" parent="1">
          <mxGeometry x="80" y="440" width="20" height="40" as="geometry" />
        </mxCell>
        <mxCell id="dkqH8y9ofOULMfJ75M3o-10" value="" style="rounded=0;whiteSpace=wrap;html=1;fillColor=none;dashed=1;gradientColor=default;" vertex="1" parent="1">
          <mxGeometry x="100" y="440" width="20" height="40" as="geometry" />
        </mxCell>
        <mxCell id="dkqH8y9ofOULMfJ75M3o-11" value="" style="endArrow=none;html=1;rounded=0;" edge="1" parent="1">
          <mxGeometry width="50" height="50" relative="1" as="geometry">
            <mxPoint x="200" y="440" as="sourcePoint" />
            <mxPoint x="280" y="440" as="targetPoint" />
          </mxGeometry>
        </mxCell>
        <mxCell id="dkqH8y9ofOULMfJ75M3o-12" value="" style="endArrow=none;html=1;rounded=0;" edge="1" parent="1">
          <mxGeometry width="50" height="50" relative="1" as="geometry">
            <mxPoint x="200" y="480" as="sourcePoint" />
            <mxPoint x="280" y="480" as="targetPoint" />
          </mxGeometry>
        </mxCell>
        <mxCell id="dkqH8y9ofOULMfJ75M3o-13" value="" style="html=1;shadow=0;dashed=0;align=center;verticalAlign=middle;shape=mxgraph.arrows2.arrow;dy=0.34;dx=20.24;notch=0;fillColor=#E6E6E6;" vertex="1" parent="1">
          <mxGeometry x="300.19" y="445" width="30" height="30" as="geometry" />
        </mxCell>
        <mxCell id="dkqH8y9ofOULMfJ75M3o-15" value="" style="endArrow=none;html=1;rounded=0;" edge="1" parent="1">
          <mxGeometry width="50" height="50" relative="1" as="geometry">
            <mxPoint x="340.1" y="440" as="sourcePoint" />
            <mxPoint x="420.1" y="440" as="targetPoint" />
          </mxGeometry>
        </mxCell>
        <mxCell id="dkqH8y9ofOULMfJ75M3o-16" value="" style="endArrow=none;html=1;rounded=0;" edge="1" parent="1">
          <mxGeometry width="50" height="50" relative="1" as="geometry">
            <mxPoint x="340.1" y="480" as="sourcePoint" />
            <mxPoint x="420.1" y="480" as="targetPoint" />
          </mxGeometry>
        </mxCell>
        <mxCell id="dkqH8y9ofOULMfJ75M3o-18" value="2" style="rounded=0;whiteSpace=wrap;html=1;fillColor=#E6E6E6;" vertex="1" parent="1">
          <mxGeometry x="370.1" y="440" width="20" height="40" as="geometry" />
        </mxCell>
        <mxCell id="dkqH8y9ofOULMfJ75M3o-19" value="" style="rounded=0;whiteSpace=wrap;html=1;fillColor=none;dashed=1;gradientColor=default;" vertex="1" parent="1">
          <mxGeometry x="230" y="440" width="20" height="40" as="geometry" />
        </mxCell>
        <mxCell id="dkqH8y9ofOULMfJ75M3o-20" value="" style="rounded=0;whiteSpace=wrap;html=1;fillColor=none;dashed=1;gradientColor=default;" vertex="1" parent="1">
          <mxGeometry x="250" y="440" width="20" height="40" as="geometry" />
        </mxCell>
        <mxCell id="dkqH8y9ofOULMfJ75M3o-22" value="TAIL" style="text;html=1;strokeColor=none;fillColor=none;align=center;verticalAlign=middle;whiteSpace=wrap;rounded=0;" vertex="1" parent="1">
          <mxGeometry x="110" y="500" width="40" height="20" as="geometry" />
        </mxCell>
        <mxCell id="dkqH8y9ofOULMfJ75M3o-23" value="" style="endArrow=classic;html=1;rounded=0;strokeColor=#3333FF;" edge="1" parent="1">
          <mxGeometry width="50" height="50" relative="1" as="geometry">
            <mxPoint x="109.80999999999989" y="510" as="sourcePoint" />
            <mxPoint x="109.80999999999989" y="490" as="targetPoint" />
          </mxGeometry>
        </mxCell>
        <mxCell id="dkqH8y9ofOULMfJ75M3o-24" value="" style="endArrow=classic;html=1;rounded=0;strokeColor=#FF3333;" edge="1" parent="1">
          <mxGeometry width="50" height="50" relative="1" as="geometry">
            <mxPoint x="219.8" y="510" as="sourcePoint" />
            <mxPoint x="219.8" y="490" as="targetPoint" />
          </mxGeometry>
        </mxCell>
        <mxCell id="dkqH8y9ofOULMfJ75M3o-25" value="HEAD" style="text;html=1;strokeColor=none;fillColor=none;align=center;verticalAlign=middle;whiteSpace=wrap;rounded=0;" vertex="1" parent="1">
          <mxGeometry x="180" y="500" width="40" height="20" as="geometry" />
        </mxCell>
        <mxCell id="dkqH8y9ofOULMfJ75M3o-26" value="TAIL" style="text;html=1;strokeColor=none;fillColor=none;align=center;verticalAlign=middle;whiteSpace=wrap;rounded=0;" vertex="1" parent="1">
          <mxGeometry x="260.19" y="500" width="40" height="20" as="geometry" />
        </mxCell>
        <mxCell id="dkqH8y9ofOULMfJ75M3o-27" value="" style="endArrow=classic;html=1;rounded=0;strokeColor=#3333FF;" edge="1" parent="1">
          <mxGeometry width="50" height="50" relative="1" as="geometry">
            <mxPoint x="259.9999999999999" y="510" as="sourcePoint" />
            <mxPoint x="259.9999999999999" y="490" as="targetPoint" />
          </mxGeometry>
        </mxCell>
        <mxCell id="dkqH8y9ofOULMfJ75M3o-28" value="" style="endArrow=none;html=1;rounded=0;" edge="1" parent="1">
          <mxGeometry width="50" height="50" relative="1" as="geometry">
            <mxPoint x="340.1" y="480" as="sourcePoint" />
            <mxPoint x="420.1" y="480" as="targetPoint" />
          </mxGeometry>
        </mxCell>
        <mxCell id="dkqH8y9ofOULMfJ75M3o-29" value="" style="endArrow=classic;html=1;rounded=0;strokeColor=#FF3333;" edge="1" parent="1">
          <mxGeometry width="50" height="50" relative="1" as="geometry">
            <mxPoint x="380.00000000000006" y="510" as="sourcePoint" />
            <mxPoint x="380.00000000000006" y="490" as="targetPoint" />
          </mxGeometry>
        </mxCell>
        <mxCell id="dkqH8y9ofOULMfJ75M3o-30" value="HEAD" style="text;html=1;strokeColor=none;fillColor=none;align=center;verticalAlign=middle;whiteSpace=wrap;rounded=0;" vertex="1" parent="1">
          <mxGeometry x="340.20000000000005" y="500" width="40" height="20" as="geometry" />
        </mxCell>
        <mxCell id="dkqH8y9ofOULMfJ75M3o-31" value="TAIL" style="text;html=1;strokeColor=none;fillColor=none;align=center;verticalAlign=middle;whiteSpace=wrap;rounded=0;" vertex="1" parent="1">
          <mxGeometry x="400.29" y="500" width="40" height="20" as="geometry" />
        </mxCell>
        <mxCell id="dkqH8y9ofOULMfJ75M3o-32" value="" style="endArrow=classic;html=1;rounded=0;strokeColor=#3333FF;" edge="1" parent="1">
          <mxGeometry width="50" height="50" relative="1" as="geometry">
            <mxPoint x="400.0999999999999" y="510" as="sourcePoint" />
            <mxPoint x="400.0999999999999" y="490" as="targetPoint" />
          </mxGeometry>
        </mxCell>
        <mxCell id="dkqH8y9ofOULMfJ75M3o-33" value="2" style="rounded=0;whiteSpace=wrap;html=1;fillColor=#E6E6E6;" vertex="1" parent="1">
          <mxGeometry x="80" y="440" width="20" height="40" as="geometry" />
        </mxCell>
        <mxCell id="dkqH8y9ofOULMfJ75M3o-34" value="2" style="rounded=0;whiteSpace=wrap;html=1;fillColor=#E6E6E6;" vertex="1" parent="1">
          <mxGeometry x="229.99999999999997" y="440" width="20" height="40" as="geometry" />
        </mxCell>
        <mxCell id="dkqH8y9ofOULMfJ75M3o-36" value="" style="rounded=0;whiteSpace=wrap;html=1;fillColor=none;dashed=1;gradientColor=default;" vertex="1" parent="1">
          <mxGeometry x="390.1" y="440" width="20" height="40" as="geometry" />
        </mxCell>
      </root>
    </mxGraphModel>
  </diagram>
  <diagram id="mWNLIzSeQIfVS5001_bo" name="peek">
    <mxGraphModel dx="1177" dy="596" grid="1" gridSize="10" guides="1" tooltips="1" connect="1" arrows="1" fold="1" page="1" pageScale="1" pageWidth="1169" pageHeight="827" math="0" shadow="0">
      <root>
        <mxCell id="0" />
        <mxCell id="1" parent="0" />
        <mxCell id="hjaOeOP0sM9z4ChbZff_-1" value="" style="curved=1;endArrow=classic;html=1;rounded=0;entryX=0.5;entryY=1;entryDx=0;entryDy=0;" edge="1" parent="1" target="hjaOeOP0sM9z4ChbZff_-2">
          <mxGeometry width="50" height="50" relative="1" as="geometry">
            <mxPoint x="270" y="300" as="sourcePoint" />
            <mxPoint x="340" y="420" as="targetPoint" />
            <Array as="points">
              <mxPoint x="290" y="300" />
            </Array>
          </mxGeometry>
        </mxCell>
        <mxCell id="hjaOeOP0sM9z4ChbZff_-2" value="1" style="rounded=0;whiteSpace=wrap;html=1;fillColor=#E6E6E6;dashed=1;" vertex="1" parent="1">
          <mxGeometry x="280" y="230" width="20" height="40" as="geometry" />
        </mxCell>
        <mxCell id="hjaOeOP0sM9z4ChbZff_-3" value="" style="endArrow=classic;html=1;rounded=0;strokeColor=#FF3333;" edge="1" parent="1">
          <mxGeometry width="50" height="50" relative="1" as="geometry">
            <mxPoint x="109.99999999999989" y="350" as="sourcePoint" />
            <mxPoint x="109.99999999999989" y="330" as="targetPoint" />
          </mxGeometry>
        </mxCell>
        <mxCell id="hjaOeOP0sM9z4ChbZff_-4" value="HEAD" style="text;html=1;strokeColor=none;fillColor=none;align=center;verticalAlign=middle;whiteSpace=wrap;rounded=0;" vertex="1" parent="1">
          <mxGeometry x="110" y="340" width="40" height="20" as="geometry" />
        </mxCell>
        <mxCell id="hjaOeOP0sM9z4ChbZff_-5" value="TAIL" style="text;html=1;strokeColor=none;fillColor=none;align=center;verticalAlign=middle;whiteSpace=wrap;rounded=0;" vertex="1" parent="1">
          <mxGeometry x="30" y="340" width="40" height="20" as="geometry" />
        </mxCell>
        <mxCell id="hjaOeOP0sM9z4ChbZff_-6" value="" style="endArrow=classic;html=1;rounded=0;strokeColor=#3333FF;" edge="1" parent="1">
          <mxGeometry width="50" height="50" relative="1" as="geometry">
            <mxPoint x="69.80999999999995" y="350" as="sourcePoint" />
            <mxPoint x="69.80999999999995" y="330" as="targetPoint" />
          </mxGeometry>
        </mxCell>
        <mxCell id="hjaOeOP0sM9z4ChbZff_-7" value="" style="endArrow=classic;html=1;rounded=0;strokeColor=#FF3333;" edge="1" parent="1">
          <mxGeometry width="50" height="50" relative="1" as="geometry">
            <mxPoint x="259.9999999999999" y="350" as="sourcePoint" />
            <mxPoint x="259.9999999999999" y="330" as="targetPoint" />
          </mxGeometry>
        </mxCell>
        <mxCell id="hjaOeOP0sM9z4ChbZff_-8" value="HEAD" style="text;html=1;strokeColor=none;fillColor=none;align=center;verticalAlign=middle;whiteSpace=wrap;rounded=0;" vertex="1" parent="1">
          <mxGeometry x="260" y="340" width="40" height="20" as="geometry" />
        </mxCell>
        <mxCell id="hjaOeOP0sM9z4ChbZff_-9" value="TAIL" style="text;html=1;strokeColor=none;fillColor=none;align=center;verticalAlign=middle;whiteSpace=wrap;rounded=0;" vertex="1" parent="1">
          <mxGeometry x="170" y="340" width="40" height="20" as="geometry" />
        </mxCell>
        <mxCell id="hjaOeOP0sM9z4ChbZff_-10" value="" style="endArrow=classic;html=1;rounded=0;strokeColor=#3333FF;" edge="1" parent="1">
          <mxGeometry width="50" height="50" relative="1" as="geometry">
            <mxPoint x="219.80999999999995" y="350" as="sourcePoint" />
            <mxPoint x="219.80999999999995" y="330" as="targetPoint" />
          </mxGeometry>
        </mxCell>
        <mxCell id="hjaOeOP0sM9z4ChbZff_-11" value="" style="endArrow=classic;html=1;rounded=0;strokeColor=#FF3333;" edge="1" parent="1">
          <mxGeometry width="50" height="50" relative="1" as="geometry">
            <mxPoint x="410" y="350" as="sourcePoint" />
            <mxPoint x="410" y="330" as="targetPoint" />
          </mxGeometry>
        </mxCell>
        <mxCell id="hjaOeOP0sM9z4ChbZff_-12" value="HEAD" style="text;html=1;strokeColor=none;fillColor=none;align=center;verticalAlign=middle;whiteSpace=wrap;rounded=0;" vertex="1" parent="1">
          <mxGeometry x="410" y="340" width="40" height="20" as="geometry" />
        </mxCell>
        <mxCell id="hjaOeOP0sM9z4ChbZff_-13" value="TAIL" style="text;html=1;strokeColor=none;fillColor=none;align=center;verticalAlign=middle;whiteSpace=wrap;rounded=0;" vertex="1" parent="1">
          <mxGeometry x="310" y="340" width="40" height="20" as="geometry" />
        </mxCell>
        <mxCell id="hjaOeOP0sM9z4ChbZff_-14" value="" style="endArrow=classic;html=1;rounded=0;strokeColor=#3333FF;" edge="1" parent="1">
          <mxGeometry width="50" height="50" relative="1" as="geometry">
            <mxPoint x="369.80999999999995" y="350" as="sourcePoint" />
            <mxPoint x="369.80999999999995" y="330" as="targetPoint" />
          </mxGeometry>
        </mxCell>
        <mxCell id="hjaOeOP0sM9z4ChbZff_-15" value="" style="rounded=0;whiteSpace=wrap;html=1;fillColor=none;dashed=1;gradientColor=default;" vertex="1" parent="1">
          <mxGeometry x="60" y="280" width="20" height="40" as="geometry" />
        </mxCell>
        <mxCell id="hjaOeOP0sM9z4ChbZff_-16" value="" style="endArrow=none;html=1;rounded=0;" edge="1" parent="1">
          <mxGeometry width="50" height="50" relative="1" as="geometry">
            <mxPoint x="350" y="280" as="sourcePoint" />
            <mxPoint x="430" y="280" as="targetPoint" />
          </mxGeometry>
        </mxCell>
        <mxCell id="hjaOeOP0sM9z4ChbZff_-17" value="" style="endArrow=none;html=1;rounded=0;" edge="1" parent="1">
          <mxGeometry width="50" height="50" relative="1" as="geometry">
            <mxPoint x="350" y="320" as="sourcePoint" />
            <mxPoint x="430" y="320" as="targetPoint" />
          </mxGeometry>
        </mxCell>
        <mxCell id="hjaOeOP0sM9z4ChbZff_-18" value="2" style="rounded=0;whiteSpace=wrap;html=1;fillColor=#E6E6E6;" vertex="1" parent="1">
          <mxGeometry x="380" y="280" width="20" height="40" as="geometry" />
        </mxCell>
        <mxCell id="hjaOeOP0sM9z4ChbZff_-19" value="" style="rounded=0;whiteSpace=wrap;html=1;fillColor=none;dashed=1;gradientColor=default;" vertex="1" parent="1">
          <mxGeometry x="360" y="280" width="20" height="40" as="geometry" />
        </mxCell>
        <mxCell id="hjaOeOP0sM9z4ChbZff_-20" value="" style="endArrow=none;html=1;rounded=0;" edge="1" parent="1">
          <mxGeometry width="50" height="50" relative="1" as="geometry">
            <mxPoint x="200" y="280" as="sourcePoint" />
            <mxPoint x="280" y="280" as="targetPoint" />
          </mxGeometry>
        </mxCell>
        <mxCell id="hjaOeOP0sM9z4ChbZff_-21" value="" style="endArrow=none;html=1;rounded=0;" edge="1" parent="1">
          <mxGeometry width="50" height="50" relative="1" as="geometry">
            <mxPoint x="200" y="320" as="sourcePoint" />
            <mxPoint x="280" y="320" as="targetPoint" />
          </mxGeometry>
        </mxCell>
        <mxCell id="hjaOeOP0sM9z4ChbZff_-22" value="" style="html=1;shadow=0;dashed=0;align=center;verticalAlign=middle;shape=mxgraph.arrows2.arrow;dy=0.34;dx=20.24;notch=0;fillColor=#E6E6E6;" vertex="1" parent="1">
          <mxGeometry x="300" y="285" width="30" height="30" as="geometry" />
        </mxCell>
        <mxCell id="hjaOeOP0sM9z4ChbZff_-23" value="2" style="rounded=0;whiteSpace=wrap;html=1;fillColor=#E6E6E6;" vertex="1" parent="1">
          <mxGeometry x="230" y="280" width="20" height="40" as="geometry" />
        </mxCell>
        <mxCell id="hjaOeOP0sM9z4ChbZff_-24" value="" style="rounded=0;whiteSpace=wrap;html=1;fillColor=none;dashed=1;gradientColor=default;" vertex="1" parent="1">
          <mxGeometry x="210" y="280" width="20" height="40" as="geometry" />
        </mxCell>
        <mxCell id="hjaOeOP0sM9z4ChbZff_-25" value="" style="endArrow=none;html=1;rounded=0;" edge="1" parent="1">
          <mxGeometry width="50" height="50" relative="1" as="geometry">
            <mxPoint x="50" y="280" as="sourcePoint" />
            <mxPoint x="130" y="280" as="targetPoint" />
          </mxGeometry>
        </mxCell>
        <mxCell id="hjaOeOP0sM9z4ChbZff_-26" value="" style="endArrow=none;html=1;rounded=0;" edge="1" parent="1">
          <mxGeometry width="50" height="50" relative="1" as="geometry">
            <mxPoint x="50" y="320" as="sourcePoint" />
            <mxPoint x="130" y="320" as="targetPoint" />
          </mxGeometry>
        </mxCell>
        <mxCell id="hjaOeOP0sM9z4ChbZff_-27" value="" style="html=1;shadow=0;dashed=0;align=center;verticalAlign=middle;shape=mxgraph.arrows2.arrow;dy=0.34;dx=20.24;notch=0;fillColor=#E6E6E6;" vertex="1" parent="1">
          <mxGeometry x="150" y="285" width="30" height="30" as="geometry" />
        </mxCell>
        <mxCell id="hjaOeOP0sM9z4ChbZff_-28" value="1" style="rounded=0;whiteSpace=wrap;html=1;fillColor=#E6E6E6;" vertex="1" parent="1">
          <mxGeometry x="100" y="280" width="20" height="40" as="geometry" />
        </mxCell>
        <mxCell id="hjaOeOP0sM9z4ChbZff_-29" value="2" style="rounded=0;whiteSpace=wrap;html=1;fillColor=#E6E6E6;" vertex="1" parent="1">
          <mxGeometry x="80" y="280" width="20" height="40" as="geometry" />
        </mxCell>
        <mxCell id="hjaOeOP0sM9z4ChbZff_-30" value="1" style="rounded=0;whiteSpace=wrap;html=1;fillColor=#E6E6E6;" vertex="1" parent="1">
          <mxGeometry x="250" y="280" width="20" height="40" as="geometry" />
        </mxCell>
        <mxCell id="hjaOeOP0sM9z4ChbZff_-31" value="1" style="rounded=0;whiteSpace=wrap;html=1;fillColor=#E6E6E6;" vertex="1" parent="1">
          <mxGeometry x="400" y="280" width="20" height="40" as="geometry" />
        </mxCell>
        <mxCell id="hjaOeOP0sM9z4ChbZff_-32" value="" style="endArrow=classic;html=1;rounded=0;strokeColor=#FF3333;" edge="1" parent="1">
          <mxGeometry width="50" height="50" relative="1" as="geometry">
            <mxPoint x="329.9999999999999" y="249.70999999999998" as="sourcePoint" />
            <mxPoint x="310" y="249.70999999999998" as="targetPoint" />
          </mxGeometry>
        </mxCell>
        <mxCell id="hjaOeOP0sM9z4ChbZff_-33" value="Peek" style="text;html=1;strokeColor=none;fillColor=none;align=center;verticalAlign=middle;whiteSpace=wrap;rounded=0;" vertex="1" parent="1">
          <mxGeometry x="340" y="240" width="40" height="20" as="geometry" />
        </mxCell>
      </root>
    </mxGraphModel>
  </diagram>
</mxfile>
